<?xml version="1.0" encoding="iso-8859-1"?>
<!-- Generator: Adobe Illustrator 19.0.0, SVG Export Plug-In . SVG Version: 6.00 Build 0)  -->
<svg version="1.1" id="Layer_1" xmlns="http://www.w3.org/2000/svg" xmlns:xlink="http://www.w3.org/1999/xlink" x="0px" y="0px"
	 viewBox="0 0 512 512" style="enable-background:new 0 0 512 512;" xml:space="preserve">
<g>
	<g>
		<path d="M437.019,74.981C388.667,26.628,324.38,0,256,0S123.333,26.628,74.981,74.981C26.629,123.333,0,187.62,0,256
			s26.629,132.667,74.981,181.019C123.333,485.372,187.62,512,256,512s132.667-26.628,181.019-74.981
			C485.371,388.667,512,324.38,512,256S485.371,123.333,437.019,74.981z M425.683,425.682
			C380.358,471.005,320.097,495.967,256,495.967s-124.358-24.962-169.683-70.285C40.994,380.358,16.033,320.097,16.033,256
			S40.994,131.642,86.317,86.318C131.642,40.995,191.903,16.033,256,16.033s124.358,24.962,169.683,70.285
			c45.323,45.323,70.284,105.584,70.284,169.682S471.006,380.358,425.683,425.682z"/>
	</g>
</g>
<g>
	<g>
		<path d="M256,42.756C138.416,42.756,42.756,138.416,42.756,256S138.416,469.244,256,469.244S469.244,373.584,469.244,256
			S373.584,42.756,256,42.756z M256,453.211c-108.743,0-197.211-88.469-197.211-197.211S147.257,58.789,256,58.789
			S453.211,147.258,453.211,256S364.743,453.211,256,453.211z"/>
	</g>
</g>
<g>
	<g>
		<path d="M313.509,244.202c11.53-9.315,18.917-23.566,18.917-39.508c0-27.995-22.777-50.772-50.772-50.772h-9.086v-17.637
			c0-4.428-3.589-8.017-8.017-8.017s-8.017,3.588-8.017,8.017v17.637h-18.171v-17.637c0-4.428-3.589-8.017-8.017-8.017
			s-8.017,3.588-8.017,8.017v17.637h-34.739c-4.427,0-8.017,3.588-8.017,8.017c0,4.428,3.589,8.017,8.017,8.017h9.086v172.092
			h-9.086c-4.427,0-8.017,3.588-8.017,8.017c0,4.428,3.589,8.017,8.017,8.017h34.739v17.637c0,4.428,3.589,8.017,8.017,8.017
			s8.017-3.588,8.017-8.017v-17.637h18.171v17.637c0,4.428,3.589,8.017,8.017,8.017s8.017-3.588,8.017-8.017v-17.637h17.637
			c32.711,0,59.324-26.612,59.324-59.324C349.528,274.312,334.669,253.274,313.509,244.202z M212.71,169.954h68.944
			c19.155,0,34.739,15.583,34.739,34.739s-15.584,34.739-34.739,34.739H212.71V169.954z M290.205,342.046H212.71v-86.58h77.495
			c23.871,0,43.29,19.42,43.29,43.29S314.075,342.046,290.205,342.046z"/>
	</g>
</g>
<g>
</g>
<g>
</g>
<g>
</g>
<g>
</g>
<g>
</g>
<g>
</g>
<g>
</g>
<g>
</g>
<g>
</g>
<g>
</g>
<g>
</g>
<g>
</g>
<g>
</g>
<g>
</g>
<g>
</g>
</svg>
