<?xml version="1.0" encoding="iso-8859-1"?>
<!-- Generator: Adobe Illustrator 16.0.0, SVG Export Plug-In . SVG Version: 6.00 Build 0)  -->
<!DOCTYPE svg PUBLIC "-//W3C//DTD SVG 1.1//EN" "http://www.w3.org/Graphics/SVG/1.1/DTD/svg11.dtd">
<svg version="1.1" id="Capa_1" xmlns="http://www.w3.org/2000/svg" xmlns:xlink="http://www.w3.org/1999/xlink" x="0px" y="0px"
	 width="603.421px" height="603.421px" viewBox="0 0 603.421 603.421" style="enable-background:new 0 0 603.421 603.421;"
	 xml:space="preserve">
<g>
	<g>
		<g>
			<path d="M120.267,392.077c11.021,13.513,27.349,21.265,44.795,21.265c13.247,0,26.203-4.608,36.48-12.976l129.311-105.275
				l61.289,75.036l-2.307,1.885c-8.559,6.991-14.803,16.222-18.058,26.691c-3.011,9.691-3.322,20.047-0.899,29.949
				c2.422,9.903,7.479,18.946,14.624,26.151c7.72,7.786,17.52,13.091,28.341,15.341l123.596,25.707
				c1.271,0.264,3.208,0.635,5.625,0.873c1.767,0.175,3.568,0.264,5.348,0.264c13.434,0,26.34-4.955,36.34-13.953
				c10.089-9.077,16.386-21.511,17.73-35.011c0.221-2.218,0.25-4.036,0.251-5.228l0.188-125.103
				c0.022-15.193-5.845-29.451-16.522-40.145c-10.614-10.63-25.306-16.727-40.306-16.727c-12.984,0-25.711,4.556-35.838,12.828
				l-1.714,1.399L387.61,126.994c-10.673-13.067-26.474-20.562-43.351-20.562c-10.097,0-20.014,2.763-28.632,7.889
				c-2.392,1.284-4.694,2.814-6.875,4.596L178.35,225.432l-49.558-60.672c-10.672-13.067-26.474-20.562-43.35-20.562
				c-12.861,0-25.432,4.482-35.396,12.622l-28.375,23.176c-24.637,20.124-28.31,56.541-8.187,81.179L120.267,392.077z
				 M48.773,213.175l28.374-23.176c2.437-1.991,5.375-2.96,8.295-2.96c3.805,0,7.577,1.646,10.171,4.822l67.261,82.346
				c2.937,3.595,7.207,5.458,11.513,5.458c3.304,0,6.629-1.097,9.388-3.35l152.077-124.218l0.113,0.137
				c2.436-1.99,5.375-2.96,8.294-2.96c3.805,0,7.577,1.646,10.172,4.822l139.731,171.071c2.594,3.176,6.368,4.822,10.172,4.822
				c2.92,0,5.857-0.97,8.295-2.961l24.729-20.198c2.673-2.184,5.739-3.165,8.734-3.166c7.202,0,14.002,5.672,13.988,13.967
				l-0.188,125.103c0,0.35-0.006,0.7-0.04,1.048c-0.591,5.93-5.605,10.367-11.441,10.367c-0.377,0-0.758-0.019-1.142-0.057
				c-0.372-0.036-0.74-0.106-1.107-0.183l-123.596-25.707c-10.811-2.248-14.182-16.027-5.63-23.013l25.32-20.683
				c5.614-4.585,6.447-12.853,1.862-18.467l-98.856-121.025c-2.594-3.177-6.367-4.822-10.172-4.822c-2.92,0-5.856,0.97-8.294,2.96
				L174.497,367.144c-2.774,2.258-6.116,3.358-9.435,3.358c-4.34,0-8.643-1.879-11.6-5.504L46.665,234.076
				C41.476,227.723,42.419,218.365,48.773,213.175z"/>
			<path d="M548.412,497.488c-1.797,0-3.612-0.09-5.396-0.267c-2.446-0.24-4.412-0.618-5.678-0.881l-123.596-25.707
				c-10.918-2.27-20.806-7.622-28.595-15.479c-7.209-7.27-12.312-16.394-14.754-26.384c-2.444-9.989-2.131-20.438,0.907-30.217
				c3.284-10.564,9.584-19.877,18.219-26.931l1.92-1.568l-60.657-74.262l-128.924,104.96c-10.367,8.439-23.435,13.088-36.796,13.088
				c-17.597,0-34.066-7.817-45.183-21.448L13.098,261.492C-7.2,236.641-3.495,199.908,21.355,179.61l28.375-23.176
				c10.053-8.212,22.735-12.735,35.712-12.735c17.027,0,32.969,7.562,43.737,20.745l49.242,60.285L308.436,118.53
				c2.167-1.771,4.507-3.334,6.955-4.649c8.734-5.196,18.724-7.948,28.868-7.948c17.027,0,32.97,7.562,43.737,20.745
				l120.616,147.669l1.326-1.083c10.216-8.345,23.056-12.94,36.154-12.94c15.133,0,29.952,6.15,40.659,16.873
				c10.771,10.788,16.691,25.17,16.669,40.499l-0.188,125.103c-0.001,1.182-0.028,3.014-0.254,5.276
				c-1.356,13.624-7.711,26.172-17.894,35.333C574.994,492.487,561.969,497.488,548.412,497.488z M330.924,294.388l0.316,0.387
				l61.604,75.424l-2.693,2.2c-8.482,6.929-14.671,16.076-17.896,26.453c-2.984,9.605-3.292,19.869-0.892,29.682
				c2.4,9.814,7.412,18.777,14.494,25.918c7.65,7.717,17.362,12.974,28.087,15.204l123.596,25.707
				c1.243,0.258,3.174,0.628,5.572,0.864c1.752,0.174,3.534,0.262,5.299,0.262c13.311,0,26.098-4.91,36.005-13.825
				c9.997-8.993,16.235-21.312,17.567-34.688c0.222-2.218,0.248-4.018,0.249-5.178l0.188-125.104
				c0.022-15.061-5.794-29.192-16.376-39.79c-10.521-10.537-25.083-16.58-39.952-16.58c-12.868,0-25.483,4.516-35.521,12.715
				l-2.102,1.716L387.222,127.311c-10.577-12.951-26.236-20.378-42.963-20.378c-9.965,0-19.776,2.704-28.376,7.818
				c-2.411,1.295-4.697,2.823-6.814,4.553l-130.79,106.832l-49.875-61.059c-10.577-12.951-26.236-20.378-42.962-20.378
				c-12.747,0-25.205,4.442-35.079,12.509l-28.375,23.176c-24.424,19.95-28.064,56.051-8.116,80.476l106.782,130.901
				c10.926,13.397,27.112,21.081,44.408,21.081c13.132,0,25.976-4.568,36.165-12.863L330.924,294.388z M548.413,454.647
				c-0.394,0-0.791-0.02-1.191-0.06c-0.389-0.037-0.774-0.11-1.159-0.19L422.466,428.69c-5.191-1.079-9.2-4.949-10.46-10.101
				c-1.26-5.15,0.509-10.434,4.615-13.789l25.32-20.682c5.392-4.403,6.195-12.372,1.791-17.764L344.876,245.33
				c-2.406-2.948-5.973-4.639-9.784-4.639c-2.896,0-5.729,1.011-7.978,2.848L174.812,367.531c-2.75,2.238-6.213,3.471-9.75,3.471
				c-4.67,0-9.039-2.073-11.987-5.688L46.278,234.392c-2.594-3.176-3.796-7.172-3.385-11.253s2.388-7.757,5.564-10.351
				l28.374-23.176c2.426-1.982,5.484-3.073,8.611-3.073c4.112,0,7.96,1.825,10.559,5.006l67.261,82.346
				c2.738,3.352,6.793,5.274,11.126,5.274c3.294,0,6.516-1.15,9.071-3.237l152.462-124.533l0.119,0.144
				c2.358-1.787,5.258-2.766,8.22-2.766c4.111,0,7.96,1.824,10.56,5.005L494.551,324.85c2.407,2.948,5.974,4.639,9.784,4.639
				c2.896,0,5.73-1.012,7.979-2.849l24.729-20.198c2.624-2.144,5.754-3.277,9.051-3.278c3.845,0,7.615,1.568,10.346,4.304
				c2.678,2.682,4.149,6.292,4.143,10.164l-0.188,125.103c0,0.365-0.007,0.732-0.042,1.096
				C559.737,449.997,554.604,454.647,548.413,454.647z M335.092,239.691c4.113,0,7.962,1.825,10.56,5.006l98.856,121.025
				c4.752,5.819,3.885,14.419-1.934,19.171l-25.32,20.683c-3.806,3.108-5.444,8.004-4.276,12.776
				c1.167,4.772,4.881,8.358,9.691,9.359l123.596,25.707c0.35,0.072,0.7,0.14,1.055,0.174c6.16,0.621,11.438-3.85,12.037-9.862
				c0.032-0.331,0.037-0.665,0.037-0.998l0.188-125.104c0.006-3.604-1.361-6.963-3.85-9.456c-2.545-2.548-6.058-4.01-9.639-4.01
				c-3.063,0.001-5.975,1.057-8.418,3.054l-24.729,20.198c-2.427,1.981-5.484,3.073-8.611,3.073c-4.112,0-7.961-1.824-10.559-5.006
				L354.044,154.412c-2.407-2.948-5.974-4.638-9.784-4.638c-2.897,0-5.73,1.011-7.978,2.847l-0.385,0.314l-0.113-0.137
				L184.092,276.702c-2.734,2.233-6.18,3.463-9.704,3.463c-4.634,0-8.972-2.056-11.9-5.642l-67.261-82.346
				c-2.408-2.948-5.974-4.639-9.784-4.639c-2.897,0-5.73,1.011-7.979,2.848L49.09,213.562c-2.97,2.425-4.817,5.862-5.202,9.677
				c-0.385,3.815,0.739,7.551,3.165,10.521L153.85,364.682c2.758,3.381,6.844,5.32,11.212,5.32c3.308,0,6.546-1.153,9.119-3.246
				l152.302-123.992C328.909,240.783,331.966,239.691,335.092,239.691z"/>
		</g>
	</g>
</g>
<g>
</g>
<g>
</g>
<g>
</g>
<g>
</g>
<g>
</g>
<g>
</g>
<g>
</g>
<g>
</g>
<g>
</g>
<g>
</g>
<g>
</g>
<g>
</g>
<g>
</g>
<g>
</g>
<g>
</g>
</svg>
